<mxfile host="app.diagrams.net" modified="2024-05-27T12:56:59.726Z" agent="Mozilla/5.0 (Windows NT 10.0; Win64; x64) AppleWebKit/537.36 (KHTML, like Gecko) Chrome/124.0.0.0 Safari/537.36" etag="_HTDRn04ppiqb4SwagfA" version="24.4.8" type="device" pages="2">
  <diagram id="C5RBs43oDa-KdzZeNtuy" name="Page-1">
    <mxGraphModel dx="1615" dy="909" grid="1" gridSize="10" guides="1" tooltips="1" connect="1" arrows="1" fold="1" page="1" pageScale="1" pageWidth="827" pageHeight="1169" math="0" shadow="0">
      <root>
        <mxCell id="WIyWlLk6GJQsqaUBKTNV-0" />
        <mxCell id="WIyWlLk6GJQsqaUBKTNV-1" parent="WIyWlLk6GJQsqaUBKTNV-0" />
        <mxCell id="v4-u-wtNsgJivPG0YdwS-8" value="" style="swimlane;startSize=0;" parent="WIyWlLk6GJQsqaUBKTNV-1" vertex="1">
          <mxGeometry x="500" y="150" width="160" height="110" as="geometry" />
        </mxCell>
        <mxCell id="v4-u-wtNsgJivPG0YdwS-9" value="&lt;b&gt;Menu Item&lt;/b&gt;" style="text;html=1;align=center;verticalAlign=middle;resizable=0;points=[];autosize=1;strokeColor=none;fillColor=none;" parent="v4-u-wtNsgJivPG0YdwS-8" vertex="1">
          <mxGeometry x="10" width="80" height="30" as="geometry" />
        </mxCell>
        <mxCell id="v4-u-wtNsgJivPG0YdwS-12" value="- name: String&lt;div&gt;- desc: String&lt;br&gt;&lt;/div&gt;&lt;div&gt;-&amp;nbsp;&lt;span style=&quot;background-color: initial;&quot;&gt;price: float&lt;/span&gt;&lt;/div&gt;&lt;div&gt;&lt;span style=&quot;background-color: initial;&quot;&gt;-&amp;nbsp;&lt;/span&gt;&lt;span style=&quot;background-color: initial;&quot;&gt;category: List&amp;lt;String&amp;gt;&lt;/span&gt;&lt;/div&gt;" style="text;html=1;align=left;verticalAlign=middle;resizable=0;points=[];autosize=1;strokeColor=none;fillColor=none;" parent="v4-u-wtNsgJivPG0YdwS-8" vertex="1">
          <mxGeometry x="10" y="20" width="150" height="70" as="geometry" />
        </mxCell>
        <mxCell id="v4-u-wtNsgJivPG0YdwS-15" value="" style="swimlane;startSize=0;" parent="WIyWlLk6GJQsqaUBKTNV-1" vertex="1">
          <mxGeometry x="120" y="50" width="270" height="280" as="geometry" />
        </mxCell>
        <mxCell id="v4-u-wtNsgJivPG0YdwS-17" value="" style="whiteSpace=wrap;html=1;" parent="v4-u-wtNsgJivPG0YdwS-15" vertex="1">
          <mxGeometry x="50" y="80" width="220" height="200" as="geometry" />
        </mxCell>
        <mxCell id="v4-u-wtNsgJivPG0YdwS-19" value="&lt;b&gt;Order&lt;/b&gt;" style="text;html=1;align=center;verticalAlign=middle;whiteSpace=wrap;rounded=0;" parent="v4-u-wtNsgJivPG0YdwS-15" vertex="1">
          <mxGeometry x="50" y="80" width="60" height="30" as="geometry" />
        </mxCell>
        <mxCell id="v4-u-wtNsgJivPG0YdwS-20" value="- quantity: int&lt;br&gt;&lt;div&gt;&lt;span style=&quot;background-color: initial;&quot;&gt;- date: date&lt;/span&gt;&lt;/div&gt;&lt;div&gt;- is_Finished: Boolean&lt;span style=&quot;background-color: initial;&quot;&gt;&lt;br&gt;&lt;/span&gt;&lt;span style=&quot;&quot;&gt;- menu_item&lt;/span&gt;&lt;span style=&quot;background-color: initial;&quot;&gt;: Array&amp;lt;MenuItem&amp;gt;&lt;/span&gt;&lt;/div&gt;" style="text;html=1;align=left;verticalAlign=middle;resizable=0;points=[];autosize=1;strokeColor=none;fillColor=none;" parent="v4-u-wtNsgJivPG0YdwS-15" vertex="1">
          <mxGeometry x="50" y="105" width="190" height="70" as="geometry" />
        </mxCell>
        <mxCell id="v4-u-wtNsgJivPG0YdwS-18" value="&lt;span style=&quot;&quot;&gt;- name: String&lt;/span&gt;&lt;div&gt;&lt;span style=&quot;&quot;&gt;- email: String&lt;/span&gt;&lt;div&gt;&lt;span style=&quot;background-color: initial;&quot;&gt;- phone_number: int&lt;/span&gt;&lt;br&gt;&lt;/div&gt;&lt;/div&gt;&lt;div&gt;&lt;span style=&quot;background-color: initial;&quot;&gt;- order:&lt;/span&gt;&lt;/div&gt;" style="text;html=1;align=left;verticalAlign=middle;resizable=0;points=[];autosize=1;strokeColor=none;fillColor=none;" parent="v4-u-wtNsgJivPG0YdwS-15" vertex="1">
          <mxGeometry y="30" width="130" height="70" as="geometry" />
        </mxCell>
        <mxCell id="v4-u-wtNsgJivPG0YdwS-16" value="&lt;b&gt;Customer&lt;/b&gt;" style="text;html=1;align=center;verticalAlign=middle;resizable=0;points=[];autosize=1;strokeColor=none;fillColor=none;" parent="v4-u-wtNsgJivPG0YdwS-15" vertex="1">
          <mxGeometry width="80" height="30" as="geometry" />
        </mxCell>
        <mxCell id="v4-u-wtNsgJivPG0YdwS-39" value="" style="endArrow=none;html=1;rounded=0;exitX=1.001;exitY=0.141;exitDx=0;exitDy=0;exitPerimeter=0;entryX=-0.002;entryY=0.173;entryDx=0;entryDy=0;entryPerimeter=0;" parent="WIyWlLk6GJQsqaUBKTNV-1" edge="1">
          <mxGeometry width="50" height="50" relative="1" as="geometry">
            <mxPoint x="390" y="210" as="sourcePoint" />
            <mxPoint x="499.19000000000005" y="210.30999999999995" as="targetPoint" />
          </mxGeometry>
        </mxCell>
        <mxCell id="v4-u-wtNsgJivPG0YdwS-36" value="" style="whiteSpace=wrap;html=1;" parent="WIyWlLk6GJQsqaUBKTNV-1" vertex="1">
          <mxGeometry x="510" y="340" width="140" height="120" as="geometry" />
        </mxCell>
        <mxCell id="v4-u-wtNsgJivPG0YdwS-37" value="- name: String&lt;div&gt;- desc: String&lt;/div&gt;" style="text;html=1;align=left;verticalAlign=middle;resizable=0;points=[];autosize=1;strokeColor=none;fillColor=none;" parent="WIyWlLk6GJQsqaUBKTNV-1" vertex="1">
          <mxGeometry x="520" y="380" width="100" height="40" as="geometry" />
        </mxCell>
        <mxCell id="v4-u-wtNsgJivPG0YdwS-38" value="&lt;b&gt;Category&lt;/b&gt;" style="text;html=1;align=center;verticalAlign=middle;whiteSpace=wrap;rounded=0;" parent="WIyWlLk6GJQsqaUBKTNV-1" vertex="1">
          <mxGeometry x="520" y="340" width="60" height="30" as="geometry" />
        </mxCell>
        <mxCell id="bLnJ8UsjF7xSL85YpPFs-0" value="" style="endArrow=none;html=1;rounded=0;entryX=0.5;entryY=1;entryDx=0;entryDy=0;exitX=1;exitY=0;exitDx=0;exitDy=0;" edge="1" parent="WIyWlLk6GJQsqaUBKTNV-1" source="v4-u-wtNsgJivPG0YdwS-38" target="v4-u-wtNsgJivPG0YdwS-8">
          <mxGeometry width="50" height="50" relative="1" as="geometry">
            <mxPoint x="310" y="320" as="sourcePoint" />
            <mxPoint x="360" y="270" as="targetPoint" />
          </mxGeometry>
        </mxCell>
      </root>
    </mxGraphModel>
  </diagram>
  <diagram id="lFHw0FQUs-VnWi4zNbXp" name="Seite-2">
    <mxGraphModel dx="1358" dy="585" grid="1" gridSize="10" guides="1" tooltips="1" connect="1" arrows="1" fold="1" page="1" pageScale="1" pageWidth="827" pageHeight="1169" math="0" shadow="0">
      <root>
        <mxCell id="0" />
        <mxCell id="1" parent="0" />
        <mxCell id="k-JvQXPbxUuuyM_VN01g-1" value="Customer" style="html=1;whiteSpace=wrap;" vertex="1" parent="1">
          <mxGeometry x="136" y="130" width="110" height="50" as="geometry" />
        </mxCell>
        <mxCell id="k-JvQXPbxUuuyM_VN01g-2" value="Order" style="html=1;whiteSpace=wrap;" vertex="1" parent="1">
          <mxGeometry x="136" y="250" width="110" height="50" as="geometry" />
        </mxCell>
        <mxCell id="k-JvQXPbxUuuyM_VN01g-3" value="MenuItem" style="html=1;whiteSpace=wrap;" vertex="1" parent="1">
          <mxGeometry x="351" y="250" width="110" height="50" as="geometry" />
        </mxCell>
        <mxCell id="k-JvQXPbxUuuyM_VN01g-4" value="Restaurant_X" style="html=1;whiteSpace=wrap;" vertex="1" parent="1">
          <mxGeometry x="581" y="130" width="110" height="50" as="geometry" />
        </mxCell>
        <mxCell id="k-JvQXPbxUuuyM_VN01g-5" value="Menu" style="html=1;whiteSpace=wrap;" vertex="1" parent="1">
          <mxGeometry x="581" y="250" width="110" height="50" as="geometry" />
        </mxCell>
        <mxCell id="k-JvQXPbxUuuyM_VN01g-6" value="M" style="endArrow=block;endFill=1;html=1;edgeStyle=orthogonalEdgeStyle;align=left;verticalAlign=top;rounded=0;exitX=0.5;exitY=1;exitDx=0;exitDy=0;" edge="1" parent="1" source="k-JvQXPbxUuuyM_VN01g-1" target="k-JvQXPbxUuuyM_VN01g-2">
          <mxGeometry x="0.1429" y="-15" relative="1" as="geometry">
            <mxPoint x="406" y="80" as="sourcePoint" />
            <mxPoint x="566" y="80" as="targetPoint" />
            <mxPoint as="offset" />
          </mxGeometry>
        </mxCell>
        <mxCell id="k-JvQXPbxUuuyM_VN01g-7" value="1" style="edgeLabel;resizable=0;html=1;align=left;verticalAlign=bottom;" connectable="0" vertex="1" parent="k-JvQXPbxUuuyM_VN01g-6">
          <mxGeometry x="-1" relative="1" as="geometry">
            <mxPoint x="-11" y="20" as="offset" />
          </mxGeometry>
        </mxCell>
        <mxCell id="k-JvQXPbxUuuyM_VN01g-8" value="M" style="endArrow=block;endFill=1;html=1;edgeStyle=orthogonalEdgeStyle;align=left;verticalAlign=top;rounded=0;entryX=1.013;entryY=0.593;entryDx=0;entryDy=0;entryPerimeter=0;exitX=0;exitY=0.5;exitDx=0;exitDy=0;" edge="1" parent="1" source="k-JvQXPbxUuuyM_VN01g-3" target="k-JvQXPbxUuuyM_VN01g-2">
          <mxGeometry x="-0.5251" y="-30" relative="1" as="geometry">
            <mxPoint x="346" y="280" as="sourcePoint" />
            <mxPoint x="286" y="330" as="targetPoint" />
            <mxPoint as="offset" />
            <Array as="points">
              <mxPoint x="351" y="280" />
            </Array>
          </mxGeometry>
        </mxCell>
        <mxCell id="k-JvQXPbxUuuyM_VN01g-9" value="1" style="edgeLabel;resizable=0;html=1;align=left;verticalAlign=bottom;" connectable="0" vertex="1" parent="k-JvQXPbxUuuyM_VN01g-8">
          <mxGeometry x="-1" relative="1" as="geometry">
            <mxPoint x="-96" y="20" as="offset" />
          </mxGeometry>
        </mxCell>
        <mxCell id="k-JvQXPbxUuuyM_VN01g-10" value="M" style="endArrow=block;endFill=1;html=1;edgeStyle=orthogonalEdgeStyle;align=left;verticalAlign=top;rounded=0;entryX=1.013;entryY=0.593;entryDx=0;entryDy=0;entryPerimeter=0;exitX=-0.003;exitY=0.533;exitDx=0;exitDy=0;exitPerimeter=0;" edge="1" parent="1" source="k-JvQXPbxUuuyM_VN01g-5">
          <mxGeometry x="0.7227" y="-27" relative="1" as="geometry">
            <mxPoint x="565" y="280" as="sourcePoint" />
            <mxPoint x="461" y="277.5" as="targetPoint" />
            <mxPoint as="offset" />
            <Array as="points">
              <mxPoint x="565" y="277" />
            </Array>
          </mxGeometry>
        </mxCell>
        <mxCell id="k-JvQXPbxUuuyM_VN01g-11" value="1" style="edgeLabel;resizable=0;html=1;align=left;verticalAlign=bottom;" connectable="0" vertex="1" parent="k-JvQXPbxUuuyM_VN01g-10">
          <mxGeometry x="-1" relative="1" as="geometry">
            <mxPoint x="-15" y="20" as="offset" />
          </mxGeometry>
        </mxCell>
        <mxCell id="k-JvQXPbxUuuyM_VN01g-12" value="" style="endArrow=none;html=1;edgeStyle=orthogonalEdgeStyle;rounded=0;exitX=0.512;exitY=1.004;exitDx=0;exitDy=0;exitPerimeter=0;entryX=0.5;entryY=0;entryDx=0;entryDy=0;" edge="1" parent="1" source="k-JvQXPbxUuuyM_VN01g-4" target="k-JvQXPbxUuuyM_VN01g-5">
          <mxGeometry relative="1" as="geometry">
            <mxPoint x="636" y="200" as="sourcePoint" />
            <mxPoint x="596" y="210" as="targetPoint" />
            <Array as="points">
              <mxPoint x="636" y="180" />
            </Array>
          </mxGeometry>
        </mxCell>
        <mxCell id="k-JvQXPbxUuuyM_VN01g-13" value="1" style="edgeLabel;resizable=0;html=1;align=left;verticalAlign=bottom;" connectable="0" vertex="1" parent="k-JvQXPbxUuuyM_VN01g-12">
          <mxGeometry x="-1" relative="1" as="geometry">
            <mxPoint y="20" as="offset" />
          </mxGeometry>
        </mxCell>
        <mxCell id="k-JvQXPbxUuuyM_VN01g-14" value="1" style="edgeLabel;resizable=0;html=1;align=right;verticalAlign=bottom;" connectable="0" vertex="1" parent="k-JvQXPbxUuuyM_VN01g-12">
          <mxGeometry x="1" relative="1" as="geometry" />
        </mxCell>
      </root>
    </mxGraphModel>
  </diagram>
</mxfile>
